<?xml version="1.0" encoding="UTF-8" standalone="no"?>
<!-- Generator: Adobe Illustrator 17.0.1, SVG Export Plug-In . SVG Version: 6.00 Build 0)  -->

<svg
   xmlns:dc="http://purl.org/dc/elements/1.1/"
   xmlns:cc="http://creativecommons.org/ns#"
   xmlns:rdf="http://www.w3.org/1999/02/22-rdf-syntax-ns#"
   xmlns:svg="http://www.w3.org/2000/svg"
   xmlns="http://www.w3.org/2000/svg"
   xmlns:xlink="http://www.w3.org/1999/xlink"
   xmlns:sodipodi="http://sodipodi.sourceforge.net/DTD/sodipodi-0.dtd"
   xmlns:inkscape="http://www.inkscape.org/namespaces/inkscape"
   version="1.1"
   x="0px"
   y="0px"
   width="86px"
   height="86px"
   viewBox="0 0 86 86"
   enable-background="new 0 0 86 86"
   xml:space="preserve"
   id="svg3460"
   inkscape:version="0.91 r13725"
   sodipodi:docname="AdSailAway.svg"
   inkscape:export-filename="/home/cecile/repos/AdSailAway/AdSailAway.png"
   inkscape:export-xdpi="100.10467"
   inkscape:export-ydpi="100.10467"><metadata
     id="metadata3485"><rdf:RDF><cc:Work
         rdf:about=""><dc:format>image/svg+xml</dc:format><dc:type
           rdf:resource="http://purl.org/dc/dcmitype/StillImage" /><dc:title></dc:title><dc:contributor><cc:Agent><dc:title>Pictures from:
https://commons.wikimedia.org/wiki/File:Stop_hand_nuvola_blue.svg
https://commons.wikimedia.org/wiki/File:Swallow_%28keelboat%29.svg
https://sailfishos.org/design/icons/</dc:title></cc:Agent></dc:contributor></cc:Work></rdf:RDF></metadata><defs
     id="defs3483"><linearGradient
       id="linearGradient3784"
       inkscape:collect="always"><stop
         id="stop3786"
         offset="0"
         style="stop-color:#000000;stop-opacity:1;" /><stop
         id="stop3788"
         offset="1"
         style="stop-color:#000000;stop-opacity:0;" /></linearGradient><inkscape:perspective
       id="perspective3222"
       inkscape:persp3d-origin="372.04724 : 350.78739 : 1"
       inkscape:vp_z="744.09448 : 526.18109 : 1"
       inkscape:vp_y="0 : 1000 : 0"
       inkscape:vp_x="0 : 526.18109 : 1"
       sodipodi:type="inkscape:persp3d" /><linearGradient
       gradientUnits="userSpaceOnUse"
       y2="408.79077"
       x2="385.03574"
       y1="372.36218"
       x1="179.78572"
       id="linearGradient3782"
       xlink:href="#linearGradient3784"
       inkscape:collect="always" /><linearGradient
       gradientUnits="userSpaceOnUse"
       y2="495.21933"
       x2="444.32141"
       y1="517.36218"
       x1="333.53574"
       id="linearGradient3790"
       xlink:href="#linearGradient3784"
       inkscape:collect="always" /><inkscape:perspective
       id="perspective59"
       inkscape:persp3d-origin="120 : 80 : 1"
       inkscape:vp_z="240 : 120 : 1"
       inkscape:vp_y="0 : 1000 : 0"
       inkscape:vp_x="0 : 120 : 1"
       sodipodi:type="inkscape:persp3d" /><linearGradient
       gradientTransform="matrix(3.7565752,0,0,3.7565752,-1744.9919,-2506.73)"
       y2="709.06689"
       x2="466.6875"
       y1="664.79169"
       x1="466.6875"
       gradientUnits="userSpaceOnUse"
       id="linearGradient5153"
       xlink:href="#linearGradient5024"
       inkscape:collect="always" /><linearGradient
       id="linearGradient5032"><stop
         id="stop5034"
         offset="0"
         style="stop-color:#ce1212;stop-opacity:1" /><stop
         id="stop5036"
         offset="1"
         style="stop-color:#ff1212;stop-opacity:1" /></linearGradient><linearGradient
       id="linearGradient5024"><stop
         id="stop5026"
         offset="0"
         style="stop-color:#ffffff;stop-opacity:1" /><stop
         id="stop5028"
         offset="1"
         style="stop-color:#ffffff;stop-opacity:0" /></linearGradient><radialGradient
       gradientTransform="matrix(1.14292e-8,1.531256,-0.876504,-2.165967e-5,462.7486,-245.0023)"
       gradientUnits="userSpaceOnUse"
       id="g5"
       r="179.55"
       cy="186.09634"
       cx="295.47125"><stop
         id="stop4889"
         offset="0"
         style="stop-color:#ffffff;stop-opacity:1" /><stop
         id="stop4891"
         offset="0.5"
         style="stop-color:#ffffff;stop-opacity:1" /><stop
         id="stop4893"
         offset="1"
         style="stop-color:#d5d5d5;stop-opacity:1" /></radialGradient><linearGradient
       gradientTransform="matrix(0.960006,0,0,0.960006,11.68071,9.787565)"
       gradientUnits="userSpaceOnUse"
       id="g4"
       y2="264.54187"
       x2="412.0943"
       y1="101.53633"
       x1="250.39845"><stop
         id="stop4884"
         offset="0"
         style="stop-color:#ffd9d9;stop-opacity:1" /><stop
         id="stop4886"
         offset="1"
         style="stop-color:#ff2727;stop-opacity:1" /></linearGradient><linearGradient
       gradientTransform="matrix(0.960006,0,0,0.960006,11.68071,9.787558)"
       gradientUnits="userSpaceOnUse"
       id="g3"
       y2="483.10001"
       x2="581.83746"
       y1="224.59892"
       x1="187.87357"><stop
         id="stop4879"
         offset="0"
         style="stop-color:#ec6c60;stop-opacity:1" /><stop
         id="stop4881"
         offset="1"
         style="stop-color:#d11412;stop-opacity:1" /></linearGradient><linearGradient
       gradientTransform="matrix(0.960006,0,0,0.960006,11.68071,9.787565)"
       gradientUnits="userSpaceOnUse"
       id="g2"
       y2="211.22995"
       x2="174.80548"
       y1="486.63101"
       x1="530.80951"><stop
         id="stop4874"
         offset="0"
         style="stop-color:#9a0000;stop-opacity:1" /><stop
         id="stop4876"
         offset="1"
         style="stop-color:#f22803;stop-opacity:1" /></linearGradient><linearGradient
       gradientTransform="matrix(4.556763,0,0,-4.315033,37.49756,2758.519)"
       gradientUnits="userSpaceOnUse"
       id="g1"
       y2="527.55511"
       x2="118.93135"
       y1="616.47717"
       x1="41.194874"><stop
         id="stop4869"
         offset="0"
         style="stop-color:#bb0000;stop-opacity:1" /><stop
         id="stop4871"
         offset="1"
         style="stop-color:#5f0000;stop-opacity:1" /></linearGradient><radialGradient
       gradientTransform="matrix(0,0.2725026,-0.1559828,-3.8545592e-6,437.26559,613.56411)"
       gradientUnits="userSpaceOnUse"
       xlink:href="#g5"
       id="radialGradient4978"
       r="179.55"
       cy="186.09634"
       cx="295.47125" /><linearGradient
       gradientTransform="matrix(0.1708429,0,0,0.1708429,356.99346,658.90657)"
       gradientUnits="userSpaceOnUse"
       xlink:href="#g4"
       id="linearGradient4981"
       y2="264.54187"
       x2="412.0943"
       y1="101.53633"
       x1="250.39845" /><linearGradient
       gradientTransform="matrix(0.1708429,0,0,0.1708429,356.99346,658.90657)"
       gradientUnits="userSpaceOnUse"
       xlink:href="#g3"
       id="linearGradient4984"
       y2="483.10001"
       x2="581.83746"
       y1="224.59892"
       x1="187.87357" /><linearGradient
       gradientTransform="matrix(0.1708429,0,0,0.1708429,356.99346,658.90657)"
       gradientUnits="userSpaceOnUse"
       xlink:href="#g2"
       id="linearGradient4987"
       y2="211.22995"
       x2="174.80548"
       y1="486.63101"
       x1="530.80951" /><linearGradient
       gradientTransform="matrix(0.8109225,0,0,-0.7679041,361.58783,1148.0714)"
       gradientUnits="userSpaceOnUse"
       xlink:href="#g1"
       id="linearGradient4990"
       y2="527.55511"
       x2="118.93135"
       y1="616.47717"
       x1="41.194874" /><linearGradient
       gradientUnits="userSpaceOnUse"
       xlink:href="#linearGradient5024"
       id="linearGradient5030"
       y2="709.06689"
       x2="466.6875"
       y1="664.79169"
       x1="466.6875" /><linearGradient
       gradientUnits="userSpaceOnUse"
       xlink:href="#linearGradient5032"
       id="linearGradient5038"
       y2="-6.6274176"
       x2="15.999988"
       y1="48.000011"
       x1="-6.6274176" /><filter
       id="filter5068"><feGaussianBlur
         inkscape:collect="always"
         stdDeviation="0.16424528"
         id="feGaussianBlur5070" /></filter></defs><sodipodi:namedview
     pagecolor="#ffffff"
     bordercolor="#666666"
     borderopacity="1"
     objecttolerance="10"
     gridtolerance="10"
     guidetolerance="10"
     inkscape:pageopacity="0"
     inkscape:pageshadow="2"
     inkscape:window-width="1600"
     inkscape:window-height="882"
     id="namedview3481"
     showgrid="false"
     inkscape:zoom="7.8255814"
     inkscape:cx="22.043091"
     inkscape:cy="43"
     inkscape:window-x="0"
     inkscape:window-y="18"
     inkscape:window-maximized="0"
     inkscape:current-layer="Layer_1" /><g
     id="Layer_2"
     display="none" /><g
     id="Layer_1"><linearGradient
       id="SVGID_1_"
       gradientUnits="userSpaceOnUse"
       x1="0.7169"
       y1="85.2831"
       x2="85.2831"
       y2="0.7169"><stop
         offset="0"
         style="stop-color:#210c74;stop-opacity:1"
         id="stop3465" /><stop
         offset="1"
         style="stop-color:#dee2e6;stop-opacity:1"
         id="stop3467" /></linearGradient><path
       fill="url(#SVGID_1_)"
       d="M84.277,0.3H43C19.417,0.3,0.3,19.418,0.3,43v41.277c0,0.786,0.637,1.423,1.423,1.423H43   c23.583,0,42.7-19.118,42.7-42.7V1.723C85.7,0.937,85.063,0.3,84.277,0.3z"
       id="path3469" /></g><g
     transform="matrix(0.16503543,0,0,0.16503543,-22.726763,-29.164068)"
     id="layer1"
     inkscape:label="Calque 1"><path
       sodipodi:nodetypes="ccccc"
       id="path2398"
       d="m 223.57143,608.07647 c 110.29986,2.03728 257.73588,-2.76188 326.84699,-10.71429 -24.92193,24.01072 -79.1163,38.27011 -161.13271,37.14286 -53.92807,-2.02632 -101.49562,-5.18426 -160,-15.75761 l -5.71428,-10.67096 z"
       style="fill:none;fill-rule:evenodd;stroke:#000000;stroke-width:1.5;stroke-linecap:butt;stroke-linejoin:miter;stroke-miterlimit:4;stroke-dasharray:none;stroke-opacity:1"
       inkscape:connector-curvature="0" /><path
       sodipodi:nodetypes="cccc"
       id="path2402"
       d="M 311.12698,630.11842 324.25897,666.23138 385,665.97883 417.69808,634.15903"
       style="fill:none;fill-rule:evenodd;stroke:#000000;stroke-width:1.5;stroke-linecap:butt;stroke-linejoin:miter;stroke-miterlimit:4;stroke-dasharray:none;stroke-opacity:1"
       inkscape:connector-curvature="0" /><path
       sodipodi:nodetypes="cccc"
       id="path2404"
       d="m 323.21818,664.90741 c -7.23903,-0.0122 -18.55982,0.46192 -20.45559,-4.04062 l -7.29297,-20.64685 c -0.1783,-5.27331 7.88383,-6.99864 13.84627,-9.95359"
       style="fill:none;fill-rule:evenodd;stroke:#000000;stroke-width:1.5;stroke-linecap:butt;stroke-linejoin:miter;stroke-miterlimit:4;stroke-dasharray:none;stroke-opacity:1"
       inkscape:connector-curvature="0" /><path
       sodipodi:nodetypes="cccccc"
       id="path2406"
       d="m 544.47222,597.79354 -109.85409,5.55584 2.54333,-3.84935 -19.96846,4.60696 -0.50507,1.51523 17.9302,-2.27284"
       style="fill:none;fill-rule:evenodd;stroke:#000000;stroke-width:1px;stroke-linecap:butt;stroke-linejoin:miter;stroke-opacity:1"
       inkscape:connector-curvature="0" /><path
       sodipodi:nodetypes="cc"
       id="path2408"
       d="M 223.24371,607.74099 417.193,604.8646"
       style="fill:none;fill-rule:evenodd;stroke:#000000;stroke-width:1px;stroke-linecap:butt;stroke-linejoin:miter;stroke-opacity:1"
       inkscape:connector-curvature="0" /><path
       sodipodi:nodetypes="ccccc"
       id="path2410"
       d="m 547.47462,597.36218 2.0203,-2.0203 2.9042,0 -1.89404,2.0203 -3.03046,0 z"
       style="fill:none;fill-rule:evenodd;stroke:#000000;stroke-width:1px;stroke-linecap:butt;stroke-linejoin:miter;stroke-opacity:1"
       inkscape:connector-curvature="0" /><path
       sodipodi:nodetypes="ccccc"
       id="path2412"
       d="m 269.20565,567.99404 139.90613,2.27284 0,3.78807 c -45.15174,-0.77415 -78.45683,0.14407 -140.4112,-3.03046 l 0.50507,-3.03045 z"
       style="fill:none;fill-rule:evenodd;stroke:#000000;stroke-width:1.5;stroke-linecap:butt;stroke-linejoin:miter;stroke-miterlimit:4;stroke-dasharray:none;stroke-opacity:1"
       inkscape:connector-curvature="0" /><path
       sodipodi:nodetypes="ccccc"
       id="path2414"
       d="m 411.38463,604.73834 -17.42514,-396.61115 2.52538,0 18.18275,396.61115 -3.28299,0 z"
       style="fill:none;fill-rule:evenodd;stroke:#000000;stroke-width:1.5;stroke-linecap:butt;stroke-linejoin:miter;stroke-miterlimit:4;stroke-dasharray:none;stroke-opacity:1"
       inkscape:connector-curvature="0" /><path
       sodipodi:nodetypes="cccc"
       id="path2416"
       d="m 270,603.07647 1.42857,-29.28572 71.42857,2.85715 -0.71428,25.71428"
       style="fill:none;fill-rule:evenodd;stroke:#000000;stroke-width:1px;stroke-linecap:butt;stroke-linejoin:miter;stroke-opacity:1"
       inkscape:connector-curvature="0" /><path
       sodipodi:nodetypes="cc"
       id="path2418"
       d="M 392.85714,210.93361 235.71429,577.36218"
       style="fill:none;fill-rule:evenodd;stroke:#000000;stroke-width:1px;stroke-linecap:butt;stroke-linejoin:miter;stroke-opacity:1"
       inkscape:connector-curvature="0" /><path
       sodipodi:nodetypes="ccc"
       id="path2420"
       d="m 223.95022,605.7244 10.5447,-26.55112 -10.5447,26.55112 z"
       style="fill:none;fill-rule:evenodd;stroke:#000000;stroke-width:1px;stroke-linecap:butt;stroke-linejoin:miter;stroke-opacity:1"
       inkscape:connector-curvature="0" /><path
       sodipodi:nodetypes="ccccc"
       id="path2422"
       d="M 407.85714,568.79075 271.96429,566.6479 c 26.1164,-131.34968 72.1049,-238.34917 118.75,-343.57143 l 2.85714,0 14.28571,345.71428 z"
       style="fill:url(#linearGradient3782);fill-opacity:1;fill-rule:evenodd;stroke:#000000;stroke-width:1.5;stroke-linecap:butt;stroke-linejoin:miter;stroke-miterlimit:4;stroke-dasharray:none;stroke-opacity:1"
       inkscape:connector-curvature="0" /><path
       sodipodi:nodetypes="cc"
       id="path2424"
       d="M 401.42857,328.79075 388.57143,603.07647"
       style="fill:none;fill-rule:evenodd;stroke:#000000;stroke-width:1px;stroke-linecap:butt;stroke-linejoin:miter;stroke-opacity:1"
       inkscape:connector-curvature="0" /><path
       sodipodi:nodetypes="cc"
       id="path2426"
       d="m 395,460.21932 12.14286,0"
       style="fill:none;fill-rule:evenodd;stroke:#000000;stroke-width:1px;stroke-linecap:butt;stroke-linejoin:miter;stroke-opacity:1"
       inkscape:connector-curvature="0" /><path
       sodipodi:nodetypes="cc"
       id="path2428"
       d="M 508.57143,596.6479 401.42857,328.79075"
       style="fill:none;fill-rule:evenodd;stroke:#000000;stroke-width:1px;stroke-linecap:butt;stroke-linejoin:miter;stroke-opacity:1"
       inkscape:connector-curvature="0" /><path
       sodipodi:nodetypes="cccc"
       id="path2430"
       d="m 505,591.6479 c -33.81734,-2.08814 -67.35094,-6.16246 -99.28571,-21.42858 L 418.57143,375.93361 505,591.6479 Z"
       style="fill:url(#linearGradient3790);fill-opacity:1;fill-rule:evenodd;stroke:#000000;stroke-width:1.5;stroke-linecap:butt;stroke-linejoin:miter;stroke-miterlimit:4;stroke-dasharray:none;stroke-opacity:1"
       inkscape:connector-curvature="0" /><path
       sodipodi:nodetypes="ccc"
       id="path2432"
       d="m 407.14286,326.6479 c 91.66668,-4.06406 112.89714,79.30994 94.28571,212.14285 -34.6007,10.16482 -52.49461,12.08629 -77.14285,8.57143"
       style="fill:none;fill-rule:evenodd;stroke:#000000;stroke-width:1px;stroke-linecap:butt;stroke-linejoin:miter;stroke-opacity:1"
       inkscape:connector-curvature="0" /><path
       sodipodi:nodetypes="cc"
       id="path2434"
       d="m 355.71429,305.93361 27.85714,9.28571"
       style="fill:none;fill-rule:evenodd;stroke:#000000;stroke-width:2;stroke-linecap:butt;stroke-linejoin:miter;stroke-miterlimit:4;stroke-dasharray:none;stroke-opacity:1"
       inkscape:connector-curvature="0" /><path
       sodipodi:nodetypes="cc"
       id="path2436"
       d="m 322.14286,388.79075 29.28571,9.28572"
       style="fill:none;fill-rule:evenodd;stroke:#000000;stroke-width:2;stroke-linecap:butt;stroke-linejoin:miter;stroke-miterlimit:4;stroke-dasharray:none;stroke-opacity:1"
       inkscape:connector-curvature="0" /><path
       sodipodi:nodetypes="cc"
       id="path2438"
       d="M 294.28571,475.93361 325,483.07647"
       style="fill:none;fill-rule:evenodd;stroke:#000000;stroke-width:2;stroke-linecap:butt;stroke-linejoin:miter;stroke-miterlimit:4;stroke-dasharray:none;stroke-opacity:1"
       inkscape:connector-curvature="0" /><path
       sodipodi:nodetypes="cc"
       id="path3212"
       d="M 412.14224,539.20469 500,538.19454"
       style="fill:none;fill-rule:evenodd;stroke:#000000;stroke-width:2;stroke-linecap:butt;stroke-linejoin:miter;stroke-miterlimit:4;stroke-dasharray:none;stroke-opacity:1"
       inkscape:connector-curvature="0" /><path
       sodipodi:nodetypes="cc"
       id="path3248"
       d="m 216.51523,624.38249 341.96954,0"
       style="fill:none;fill-rule:evenodd;stroke:#000000;stroke-width:1px;stroke-linecap:butt;stroke-linejoin:miter;stroke-opacity:1"
       inkscape:connector-curvature="0" /><path
       sodipodi:nodetypes="cc"
       id="path3250"
       d="m 230,610.21932 c 162.48401,0.66706 246.29286,-3.66818 314.64285,-10.35714"
       style="fill:none;fill-rule:evenodd;stroke:#000000;stroke-width:1px;stroke-linecap:butt;stroke-linejoin:miter;stroke-opacity:1"
       inkscape:connector-curvature="0" /><path
       sodipodi:nodetypes="cc"
       id="path3252"
       d="m 251.60714,622.36218 249.82143,0.35714"
       style="fill:none;fill-rule:evenodd;stroke:#000000;stroke-width:1px;stroke-linecap:butt;stroke-linejoin:miter;stroke-opacity:1"
       inkscape:connector-curvature="0" /><path
       sodipodi:nodetypes="cc"
       id="path3254"
       d="m 463.39286,600.21932 12.14286,-0.71428"
       style="fill:none;fill-rule:evenodd;stroke:#000000;stroke-width:1px;stroke-linecap:butt;stroke-linejoin:miter;stroke-opacity:1"
       inkscape:connector-curvature="0" /><path
       sodipodi:nodetypes="cc"
       id="path3256"
       d="m 466.25,599.86218 0,1.60714"
       style="fill:none;fill-rule:evenodd;stroke:#000000;stroke-width:1px;stroke-linecap:butt;stroke-linejoin:miter;stroke-opacity:1"
       inkscape:connector-curvature="0" /><path
       sodipodi:nodetypes="cc"
       id="path3258"
       d="M 472.32143,599.68361 472.5,601.29075"
       style="fill:none;fill-rule:evenodd;stroke:#000000;stroke-width:1px;stroke-linecap:butt;stroke-linejoin:miter;stroke-opacity:1"
       inkscape:connector-curvature="0" /><path
       sodipodi:nodetypes="cc"
       id="path3260"
       d="m 235.53571,579.86218 -10.35714,25.89286"
       style="fill:none;fill-rule:evenodd;stroke:#000000;stroke-width:1px;stroke-linecap:butt;stroke-linejoin:miter;stroke-opacity:1"
       inkscape:connector-curvature="0" /><path
       sodipodi:nodetypes="cccccccccccccccccccccccccccc"
       id="path2458"
       d="m 368.88376,331.31442 2.68669,0.94616 c 0.69546,-1.76312 0.81415,-4.24896 -1.50731,-5.27347 l -5.25246,-1.89029 c -1.26175,-0.39856 -3.48537,0.82171 -3.87768,1.91779 l -1.38432,3.93084 c -0.48356,1.25877 0.36629,3.19914 2.16693,3.80328 l 4.36893,1.57913 c 0.28908,0.19852 0.68508,0.0702 0.73851,0.66544 l -1.21922,3.46202 c -0.14076,0.53323 -0.43029,0.33944 -0.68268,0.32708 l -4.02838,-1.33759 c -0.99609,-0.40084 -1.01848,-0.94946 -0.89592,-1.36944 l 0.26873,-0.8782 -2.53709,-0.85295 -0.41275,1.17204 c -0.18962,0.55433 -0.30351,3.3371 2.13642,4.17762 l 4.6648,1.60225 c 2.07069,0.75613 3.97733,-0.82059 4.36532,-2.1514 l 1.2319,-3.49809 c 0.2973,-0.90688 -0.5917,-3.149 -1.89849,-3.58714 l -4.98734,-1.83744 c -0.33557,-0.11654 -0.50589,-0.36995 -0.38446,-0.86504 l 1.0495,-2.98008 c 0.0652,-0.28814 0.43513,-0.45192 0.63821,-0.36936 l 4.74995,1.64411 c 0.39184,0.14658 0.4562,0.39621 0.36315,0.69538 l -0.36094,0.96735 z"
       style="fill:#000000;fill-opacity:1;fill-rule:evenodd;stroke:#000000;stroke-width:0.12799999px;stroke-linecap:butt;stroke-linejoin:miter;stroke-opacity:1"
       inkscape:connector-curvature="0" /><path
       sodipodi:nodetypes="cccccc"
       id="path3792"
       d="m 305.35714,606.29075 -0.51228,-0.97464 c 6.09522,-0.84134 12.21279,-0.49975 19.08371,-0.45393 l 1e-5,-1.25 c -6.71027,0.11612 -17.12883,-0.85257 -22.32144,0.71429 l 0.89286,1.60714"
       style="fill:none;fill-rule:evenodd;stroke:#000000;stroke-width:1px;stroke-linecap:butt;stroke-linejoin:miter;stroke-opacity:1"
       inkscape:connector-curvature="0" /></g><g
     id="g3799"
     transform="matrix(0.14235992,0,0,0.14235992,49.132035,4.7724675)"><path
       d="m 68.690059,1.4390781 95.107001,4.74e-5 67.25077,67.2508405 -5e-5,95.107004 -67.25084,67.25077 -95.106997,-5e-5 L 1.4391709,163.79685 1.4392189,68.689851 68.690059,1.4390781 Z"
       style="fill:#000080;fill-opacity:1"
       id="path3717"
       inkscape:connector-curvature="0" /><path
       d="M 32.000001,0 54.627418,9.3725836 64,32.000001 54.627416,54.627418 31.999999,64 9.3725824,54.627416 0,31.999999 9.3725836,9.3725824 32.000001,0 Z"
       transform="matrix(3.5876353,-1.4860452,1.4860452,3.5876353,-38.601124,56.505677)"
       style="fill:#000080;fill-opacity:0.25657893;filter:url(#filter5068)"
       id="path5042"
       inkscape:connector-curvature="0" /><path
       d="m 71.47073,8.1521104 89.54576,3.8e-5 63.31838,63.3184406 -4e-5,89.545761 -63.31844,63.31838 -89.545753,-4e-5 L 8.1522518,161.01625 8.1522904,71.470496 71.47073,8.1521104 Z"
       style="fill:#00ffff;fill-opacity:1"
       id="path3741"
       inkscape:connector-curvature="0" /><path
       d="m 75.370982,17.568168 81.745248,2.5e-5 57.8026,57.802638 -3e-5,81.745249 -57.80263,57.8026 -81.745251,-3e-5 -57.8026,-57.80263 2.6e-5,-81.745252 57.802637,-57.8026 z"
       style="fill:#ff0000;fill-opacity:1"
       id="path3743"
       inkscape:connector-curvature="0" /><path
       d="m 117.33938,189.25546 c -26.245797,0 -51.056248,0 -51.056248,-70.01873 -0.05297,-63.350287 11.515593,-51.137323 17.018563,-45.945849 l 0.351089,-10.933249 c 0.259955,-8.093917 19.503276,-7.6056 19.521756,-1.223178 l 0.0471,-10.025248 c 0.0498,-10.609094 22.31176,-9.537306 22.49617,-2.497934 l 0.35831,13.676863 c 0.20503,-7.710408 17.50519,-10.623181 18.02055,4.376185 0,23.339564 -0.20285,48.46301 -0.51153,55.90663 9.02198,10.00267 18.96559,-38.818758 36.39441,-29.858012 7.79174,8.127162 -22.55496,65.434172 -25.83566,71.477442 -3.13234,5.76992 -17.12017,25.06508 -36.80452,25.06508 z"
       style="fill:#ffffff;fill-opacity:1;fill-rule:evenodd;stroke:#000000;stroke-width:6.61473083;stroke-linecap:butt;stroke-linejoin:round;stroke-miterlimit:4;stroke-dasharray:none;stroke-opacity:1"
       id="path14158"
       inkscape:connector-curvature="0" /><path
       d="m 104.57375,52.552219 0,60.016061"
       style="color:#000000;font-family:'Bitstream Vera Sans';display:inline;overflow:visible;visibility:visible;fill:#ffffff;fill-opacity:1;fill-rule:evenodd;stroke:#000000;stroke-width:3.33422542;stroke-linecap:butt;stroke-linejoin:miter;stroke-miterlimit:4;stroke-dasharray:none;stroke-dashoffset:0;stroke-opacity:1;marker:none;marker-start:none;marker-mid:none;marker-end:none"
       id="path16444"
       inkscape:connector-curvature="0" /><path
       d="m 124.1623,52.552219 0.41679,63.350281"
       style="fill:#ffffff;fill-opacity:1;fill-rule:evenodd;stroke:#000000;stroke-width:3.33422542;stroke-linecap:butt;stroke-linejoin:miter;stroke-miterlimit:4;stroke-dasharray:none;stroke-opacity:1"
       id="path16442"
       inkscape:connector-curvature="0" /><path
       d="m 134.58176,134.24075 c 0,0 -16.67111,3.33422 -23.33956,36.67646"
       style="fill:none;fill-opacity:0.75;fill-rule:evenodd;stroke:#000000;stroke-width:3.33422542px;stroke-linecap:butt;stroke-linejoin:miter;stroke-opacity:1"
       id="path14918"
       inkscape:connector-curvature="0" /><path
       d="m 84.568374,69.223337 0,50.430183"
       style="color:#000000;font-family:'Bitstream Vera Sans';display:inline;overflow:visible;visibility:visible;fill:#ffffff;fill-opacity:1;fill-rule:evenodd;stroke:#000000;stroke-width:3.33422542;stroke-linecap:butt;stroke-linejoin:miter;stroke-miterlimit:4;stroke-dasharray:none;stroke-dashoffset:0;stroke-opacity:1;marker:none;marker-start:none;marker-mid:none;marker-end:none"
       id="path16438"
       inkscape:connector-curvature="0" /><path
       sodipodi:nodetypes="csc"
       d="m 78.119339,126.1533 c 8.128325,-8.80568 20.507732,-12.33178 32.339951,-12.78079 8.79542,-0.33377 17.28849,1.03275 23.50834,3.19488"
       style="fill:none;stroke:#000000;stroke-width:3.33422542px;stroke-linecap:butt;stroke-linejoin:miter;stroke-opacity:1"
       id="path16448"
       inkscape:connector-curvature="0" /><path
       sodipodi:nodetypes="ccccccc"
       style="fill:url(#linearGradient5153);fill-opacity:1"
       d="M 71.429597,8.1797034 8.1547886,71.454523 l 0,27.18134 C 94.544817,118.69755 129.92477,72.689043 224.39265,97.633153 l 0,-26.17863 -63.39221,-63.2748196 -89.570843,0 z"
       id="path5509"
       inkscape:connector-curvature="0" /></g></svg>